<svg width="146" height="38" viewBox="0 0 146 38" fill="none" xmlns="http://www.w3.org/2000/svg">
<path d="M36.5325 31V4.88909H46.8862C48.6511 4.88909 50.0956 5.2457 51.2198 5.95891C52.3562 6.66004 53.1963 7.56062 53.7403 8.66066C54.2963 9.76071 54.5744 10.897 54.5744 12.0696C54.5744 13.5081 54.2299 14.729 53.5408 15.7324C52.8639 16.7357 51.9391 17.4127 50.7665 17.7632V16.8566C52.4106 17.2313 53.6557 18.011 54.5018 19.1957C55.3601 20.3804 55.7893 21.7282 55.7893 23.2393C55.7893 24.7866 55.4931 26.1405 54.9008 27.301C54.3084 28.4614 53.426 29.3681 52.2534 30.0208C51.0929 30.6736 49.6544 31 47.9378 31H36.5325ZM40.9568 26.8839H47.3939C48.1554 26.8839 48.8384 26.7328 49.4429 26.4306C50.0473 26.1163 50.5187 25.6811 50.8572 25.125C51.2078 24.5569 51.383 23.886 51.383 23.1123C51.383 22.4112 51.2319 21.7826 50.9297 21.2265C50.6275 20.6705 50.1863 20.2292 49.606 19.9029C49.0258 19.5644 48.3307 19.3952 47.5208 19.3952H40.9568V26.8839ZM40.9568 15.3153H46.8318C47.4604 15.3153 48.0225 15.1944 48.5181 14.9527C49.0137 14.7109 49.4066 14.3543 49.6967 13.8828C49.9868 13.4114 50.1319 12.8312 50.1319 12.1421C50.1319 11.2355 49.8418 10.48 49.2615 9.87555C48.6813 9.27113 47.8714 8.96892 46.8318 8.96892H40.9568V15.3153ZM68.0599 31.544C66.1016 31.544 64.3911 31.1028 62.9284 30.2203C61.4657 29.3378 60.3294 28.123 59.5195 26.5757C58.7216 25.0162 58.3227 23.2272 58.3227 21.2084C58.3227 19.1534 58.7337 17.3522 59.5557 15.8049C60.3777 14.2576 61.5201 13.0487 62.9828 12.1784C64.4455 11.308 66.1379 10.8728 68.0599 10.8728C70.0303 10.8728 71.7469 11.3141 73.2096 12.1965C74.6723 13.079 75.8086 14.2999 76.6185 15.8593C77.4284 17.4066 77.8334 19.1896 77.8334 21.2084C77.8334 23.2393 77.4224 25.0344 76.6004 26.5938C75.7904 28.1411 74.6541 29.356 73.1914 30.2384C71.7287 31.1088 70.0182 31.544 68.0599 31.544ZM68.0599 27.446C69.8006 27.446 71.0941 26.8658 71.9403 25.7053C72.7865 24.5448 73.2096 23.0458 73.2096 21.2084C73.2096 19.3105 72.7804 17.7995 71.9221 16.6753C71.0639 15.539 69.7765 14.9708 68.0599 14.9708C66.8873 14.9708 65.9203 15.2367 65.1587 15.7686C64.4092 16.2884 63.8532 17.0198 63.4905 17.9627C63.1278 18.8935 62.9465 19.9754 62.9465 21.2084C62.9465 23.1063 63.3757 24.6234 64.2339 25.7597C65.1043 26.8839 66.3796 27.446 68.0599 27.446ZM82.1911 31V4.34511H86.5611V31H82.1911ZM99.844 31.544C98.0429 31.544 96.4714 31.0907 95.1296 30.184C93.7878 29.2774 92.7482 28.0444 92.0108 26.485C91.2734 24.9256 90.9047 23.1667 90.9047 21.2084C90.9047 19.2259 91.2734 17.461 92.0108 15.9137C92.7603 14.3543 93.818 13.1273 95.184 12.2328C96.55 11.3262 98.1577 10.8728 100.007 10.8728C101.869 10.8728 103.428 11.3262 104.685 12.2328C105.955 13.1273 106.916 14.3543 107.569 15.9137C108.221 17.4731 108.548 19.238 108.548 21.2084C108.548 23.1546 108.221 24.9135 107.569 26.485C106.916 28.0444 105.943 29.2774 104.649 30.184C103.356 31.0907 101.754 31.544 99.844 31.544ZM100.515 27.6273C101.688 27.6273 102.63 27.3614 103.344 26.8295C104.069 26.2855 104.595 25.53 104.921 24.5629C105.26 23.5959 105.429 22.4777 105.429 21.2084C105.429 19.927 105.26 18.8089 104.921 17.8539C104.595 16.8868 104.081 16.1373 103.38 15.6054C102.679 15.0615 101.772 14.7895 100.66 14.7895C99.4874 14.7895 98.5204 15.0796 97.7588 15.6598C96.9972 16.228 96.4351 17.0017 96.0725 17.9808C95.7098 18.9479 95.5285 20.0237 95.5285 21.2084C95.5285 22.4052 95.7038 23.4931 96.0543 24.4723C96.417 25.4393 96.967 26.207 97.7044 26.7751C98.4418 27.3433 99.3786 27.6273 100.515 27.6273ZM105.429 31V17.2555H104.885V4.88909H109.291V31H105.429ZM123.024 31.544C121.066 31.544 119.355 31.1028 117.893 30.2203C116.43 29.3378 115.294 28.123 114.484 26.5757C113.686 25.0162 113.287 23.2272 113.287 21.2084C113.287 19.1534 113.698 17.3522 114.52 15.8049C115.342 14.2576 116.484 13.0487 117.947 12.1784C119.41 11.308 121.102 10.8728 123.024 10.8728C124.995 10.8728 126.711 11.3141 128.174 12.1965C129.637 13.079 130.773 14.2999 131.583 15.8593C132.393 17.4066 132.798 19.1896 132.798 21.2084C132.798 23.2393 132.387 25.0344 131.565 26.5938C130.755 28.1411 129.618 29.356 128.156 30.2384C126.693 31.1088 124.983 31.544 123.024 31.544ZM123.024 27.446C124.765 27.446 126.058 26.8658 126.905 25.7053C127.751 24.5448 128.174 23.0458 128.174 21.2084C128.174 19.3105 127.745 17.7995 126.887 16.6753C126.028 15.539 124.741 14.9708 123.024 14.9708C121.852 14.9708 120.885 15.2367 120.123 15.7686C119.374 16.2884 118.818 17.0198 118.455 17.9627C118.092 18.8935 117.911 19.9754 117.911 21.2084C117.911 23.1063 118.34 24.6234 119.198 25.7597C120.069 26.8839 121.344 27.446 123.024 27.446Z" fill="#0A2640"/>
<path d="M0.764648 17.0001H15.0823C19.9656 17.0001 23.9244 20.9588 23.9244 25.8422C23.9244 30.7256 19.9656 34.6843 15.0823 34.6843H0.764648V17.0001Z" fill="white"/>
<path d="M0.764648 1.52637H10.2442C13.9067 1.52637 16.8758 4.49543 16.8758 8.15794C16.8758 11.8205 13.9067 14.7895 10.2442 14.7895H0.764648V1.52637Z" fill="white"/>
</svg>
